<?xml version="1.0" encoding="UTF-8"?>
<svg id="Layer_1" xmlns="http://www.w3.org/2000/svg" version="1.1" viewBox="0 0 918.5 223.9">
  <!-- Generator: Adobe Illustrator 29.0.0, SVG Export Plug-In . SVG Version: 2.1.0 Build 186)  -->
  <defs>
    <style>
      .st0 {
        fill: #7cb341;
      }

      .st1 {
        fill: #facd0c;
      }

      .st2 {
        fill: #f8a836;
      }

      .st3 {
        fill: #f4931d;
      }

      .st4 {
        fill: #f37920;
      }

      .st5 {
        fill: #f07a20;
      }
    </style>
  </defs>
  <path class="st5" d="M49,140c3.6,2,7.2,3.9,10.8,5.9,12.5,6.9,25,13.9,37.5,20.9.7.4,1.2.2,1.8-.1,15.7-8.8,31.5-17.5,47.2-26.2.3-.2.6-.3,1-.5h0c0,1.1,0,2.2,0,3.2,0,17.7,0,35.4,0,53.2-1.7,1.2-3.6,2.1-5.3,3.1-14.3,8.1-28.7,16.1-43,24.2-.6.4-1.1.4-1.8,0-15.8-8.9-31.6-17.8-47.4-26.7-.3-.2-.5-.4-.8-.5,0-.4,0-.8,0-1.2v-55.2h0s0,0,0,0Z"/>
  <path class="st3" d="M49,82.8c0,.8-.1,1.6-.1,2.4v52c0,.9,0,1.9.1,2.8h0c-.4,0-.8.2-1.1.4-1.3.7-2.7,1.5-4,2.2-4,2.2-8,4.4-12,6.7-4.6,2.6-9.1,5.1-13.7,7.7-3.4,1.9-6.9,3.9-10.3,5.8-2.6,1.4-5.2,2.8-7.8,4.2,0-.4,0-.7,0-1.1,0-36.9,0-73.9,0-110.8s0-.8,0-1.2c.3.2.7.3,1,.5,5.4,3.2,10.8,6.5,16.2,9.7,10.1,6,20.2,12.1,30.3,18.1.5.3.9.7,1.5.6h0Z"/>
  <path class="st3" d="M147.2,139.9c0-.3,0-.6,0-.9v-55.4c0-.2,0-.5,0-.8h0c.5-.1.9-.4,1.4-.7,3.1-1.9,6.2-3.7,9.3-5.6,7.2-4.3,14.4-8.7,21.7-13,5.5-3.3,10.9-6.5,16.4-9.8,0,.4,0,.9,0,1.3v110.7c0,.5.2,1-.3,1.4-.1-.4-.4-.6-.8-.8-2.6-1.4-5.2-2.9-7.8-4.3-3.8-2.1-7.6-4.3-11.5-6.4-4.7-2.6-9.4-5.3-14.1-7.9-3.4-1.9-6.9-3.9-10.3-5.8-1.4-.7-2.6-1.7-4.1-2.1h0c0,0,0,0,0,0Z"/>
  <path class="st1" d="M147.2,82.9c-3.7-2.2-7.4-4.3-11.1-6.6-12.4-7.3-24.7-14.7-37.1-22-.3-.2-.5-.3-.9-.6,1.9-1.1,3.7-2.1,5.6-3.1,14.2-7.9,28.5-15.8,42.7-23.7.3-.1.5-.4.9-.4,0,18.8,0,37.5,0,56.3h0c0,0,0,0,0,0Z"/>
  <path class="st2" d="M49,82.8c-.6,0-1-.4-1.5-.6-10.1-6-20.2-12.1-30.3-18.1-5.4-3.2-10.8-6.5-16.2-9.7-.3-.2-.6-.3-1-.5,0-.4.4-.4.6-.5,15.8-8.9,31.7-17.7,47.6-26.6.2-.1.5-.2.7-.3,0,0,0,.1,0,.2v56.2h0Z"/>
  <path class="st2" d="M0,167c2.6-1.4,5.2-2.8,7.8-4.2,3.4-1.9,6.9-3.9,10.3-5.8,4.6-2.6,9.1-5.1,13.7-7.7,4-2.2,8-4.5,12-6.7,1.3-.7,2.7-1.5,4-2.2.3-.2.7-.4,1.1-.3v55.2c0,.4,0,.8,0,1.2-3.9-2.3-7.8-4.6-11.7-6.9-12-7.2-24-14.4-36-21.5-.4-.3-1-.4-1.2-1h0Z"/>
  <path class="st2" d="M147.3,140c1.5.4,2.8,1.4,4.1,2.1,3.5,1.9,6.9,3.8,10.3,5.8,4.7,2.6,9.4,5.3,14.1,7.9,3.8,2.1,7.6,4.3,11.5,6.4,2.6,1.4,5.2,2.9,7.8,4.3.3.2.6.4.8.8-3.4,2.1-6.9,4.2-10.3,6.2-12.4,7.4-24.8,14.8-37.2,22.3-.3.2-.6.5-1.1.5,0-17.7,0-35.4,0-53.2,0-1,0-2.1,0-3.1h0Z"/>
  <path class="st2" d="M147.3,82.8c0-18.8,0-37.5,0-56.3,3,1.5,5.9,3.2,8.9,4.9,12.8,7.1,25.6,14.3,38.4,21.5.5.3,1.1.5,1.5,1-5.5,3.2-10.9,6.5-16.4,9.8-7.2,4.3-14.4,8.6-21.7,13-3.1,1.9-6.2,3.7-9.3,5.6-.4.3-.9.6-1.4.6h0Z"/>
  <path class="st1" d="M49,82.8V26.6c3.9,2.1,7.9,4.3,11.8,6.5,12.4,6.8,24.7,13.7,37.1,20.6-1.9,1.4-4,2.5-6,3.7-14,8.3-27.9,16.6-41.9,24.9-.3.2-.7.4-1,.6h0Z"/>
  <path class="st0" d="M97.9,53.7c-12.4-6.9-24.7-13.7-37.1-20.6-3.9-2.2-7.9-4.3-11.8-6.5,0,0,0-.1,0-.2,4.7-2.6,9.5-5.2,14.2-7.8,11.3-6.1,22.6-12.2,33.9-18.3.2-.1.4-.2.7-.3.3.2.2.5.2.7,0,17.4,0,34.7,0,52.1,0,.3,0,.6,0,.9h0Z"/>
  <path class="st4" d="M425.7,161.7l-37.1-40.9h-18v40.9h-23v-66.3h57.9l11.8-11.7h-70l.4-25.4h97.3v36l-22.3,22.3,31.6,31.6v13.6h-28.4ZM666.8,161.6l-64.6-55.2v29.6h12.3v25.4h-37.8V60.8h18.9l64.6,55.8v-24h-11.5l25.7-31.6h11.2v100.6h-18.9,0ZM258.2,161.6l-27.7-26.7v-49.6l27.7-27.7h48.6l27.7,27.7v49.6l-27.7,26.7h-48.6ZM257.1,98.7v21.8l14.6,14.5h21.8l14.5-14.6v-21.8l-14.5-14.6h-21.8s-14.6,14.6-14.6,14.6ZM539,161.2v-17.5h-28l-21.8-21.4v38.8h-25.9v-67l27.8-36.2h47l26.7,35.1v68.3l-25.9-.2h0ZM489.2,93.5v24.9h49.8v-24.9l-14.2-14.9h-21.3l-14.2,14.9h0ZM809.4,161.2v-91.5l7.9-12h101.1v25.5h-83.6v13.6h75.6l-25.5,25.5h-50.2v13.6h83.6v25.5h-109,0ZM724.4,161l-26.5-26.5v-56.2l20.6-20.6h86.8l-17.2,25.4h-50.8l-14,14v24.6l14,14h34.9v-15.1h-25.9l25.4-25.4h25.9v65.9h-73.2Z"/>
</svg>